<?xml version="1.0" encoding="utf-8"?>
<!-- Generator: Adobe Illustrator 17.1.0, SVG Export Plug-In . SVG Version: 6.00 Build 0)  -->
<!DOCTYPE svg PUBLIC "-//W3C//DTD SVG 1.1//EN" "http://www.w3.org/Graphics/SVG/1.1/DTD/svg11.dtd">
<svg version="1.1" id="Layer_1" xmlns="http://www.w3.org/2000/svg" xmlns:xlink="http://www.w3.org/1999/xlink" x="0px" y="0px"
	 viewBox="0 0 141.7 103.5" enable-background="new 0 0 141.7 103.5" xml:space="preserve">
<g id="V1_2_">
	<path fill="#FFFFFF" d="M55.7,16.3c0,12.3,0,21,0,27c0,9.1,8.4,9.7,8.4,9.7s-8.4,1.1-8.4,9.8c0,5.1,0,26.4,0,32s-4.6,6.3-4.6,6.3
		h13.5c3.7,0,6.7-3,6.7-6.7V66.1c0-3.8,3.1-6.8,6.8-6.8h13c2.5,0,4.9,0.4,7.1,1.2c2.2,0.8,4.3,1.8,6.2,3.2c1.9,1.4,3.5,3,4.8,4.9
		c1.4,1.9,3.3,5.7,3.3,10.4l0.1,15.2c0,3.8,7.8,6.8,11.6,6.8h16.4c0,0-12.3-0.9-12.3-6c0,0,0-8.6,0-17.3c0-22.7-17.8-21.3-17.8-21.3
		c3.4-0.7,6.4-1.8,9.2-3.3c2.7-1.5,5-3.4,6.9-5.6c1.9-2.2,3.4-4.8,4.4-7.6c1-2.9,1.5-6,1.5-9.4c0-3.9-0.8-7.7-2.3-11.5
		c-1.5-3.7-3.8-6.9-6.7-9.5c-1.7-1.4-3.6-2.6-5.5-3.4c-1.9-0.8-3.9-1.5-6.1-1.9c-2.1-0.4-4.4-0.7-6.8-0.8c-2.4-0.1-4.9-0.2-7.6-0.2
		h-41h-2.3H43.5C43.5,3.1,55.7,3.9,55.7,16.3z M106.6,46.6c-2.9,0.6-6.3,0.9-7.8,0.9H76.4c-3.7,0-6.6-3-6.6-6.6V19.4
		c0-3,2.4-5.4,5.4-5.4h23c7,0,12.3,1.3,15.8,4c3.5,2.7,5.2,6.8,5.2,12.5c0,3.1-0.4,5.8-1.3,8c-0.9,2.2-2.2,3.9-4.1,5.2
		C111.9,45,109.5,46,106.6,46.6z"/>
	<g>
		<path fill="#FFFFFF" d="M38,101.1c0,0,4.6-0.6,4.6-6.3c0-5.6,0-26.9,0-32c0-8.7,8.4-9.8,8.4-9.8s-8.4-0.6-8.4-9.7c0-6,0-14.7,0-27
			c0-10.6-10.3-12.7-13.2-13c-1.1-0.2-2.3-0.3-3.6-0.3c-7.6,0-9.7,0.2-9.7,0.2c5.2,0,12.7,4.3,12.7,14V23v47.2
			c0,11.3,0.8,20.5-14.1,20.5c-10.2,0-11.4-6.1-11.5-8.1c0,20.6-0.7,18.5,22.4,18.5H38z"/>
	</g>
</g>
</svg>
