<?xml version="1.0" encoding="utf-8"?>
<!-- Generator: Adobe Illustrator 17.1.0, SVG Export Plug-In . SVG Version: 6.00 Build 0)  -->
<!DOCTYPE svg PUBLIC "-//W3C//DTD SVG 1.1//EN" "http://www.w3.org/Graphics/SVG/1.1/DTD/svg11.dtd">
<svg version="1.1" id="Layer_1" xmlns="http://www.w3.org/2000/svg" xmlns:xlink="http://www.w3.org/1999/xlink" x="0px" y="0px"
	 viewBox="0 0 25 18.7" enable-background="new 0 0 25 18.7" xml:space="preserve">
<g>
	<g>
		<path fill="#010101" d="M21,13l-1.4,0l-6.7,0c-0.4,0.5-0.5,1.1-0.5,1.1s0-0.6-0.4-1.1l-6.7,0L4,13c-2.3,0-3.3-1.8-3.3-3
			c0,0,0,0.5,0,2.3c0,0.3,0,0.6,0.1,0.9c0.1,0.7,0.6,3.1,3.1,3.1c2.9,0,5,0,6.4,0c2.2,0,2.3,2,2.3,2s0.2-2,2.4-2c1.4,0,3.5,0,6.4,0
			c2.5,0,3-2.4,3.1-3.1c0-0.3,0.1-0.5,0.1-0.9c0-1.8,0-2.3,0-2.3C24.3,11.2,23.3,13,21,13z"/>
	</g>
	<g>
		<path fill="#010101" d="M24.3,0.5c0,1.2-1,3-3.3,3l-1.4,0l-7.2,0l-7.1,0L4,3.4c-2.3,0-3.3-1.8-3.3-3c0,0,0,0.5,0,2.3
			c0,0.3,0,0.6,0.1,0.9c0.1,0.7,0.6,3.1,3.1,3.1c2.9,0,5,0,6.4,0c2.2,0,2.3,2,2.3,2s0.2-2,2.4-2c1.4,0,3.5,0,6.4,0
			c2.5,0,3-2.4,3.1-3.1c0-0.3,0.1-0.5,0.1-0.9C24.4,1,24.3,0.5,24.3,0.5z"/>
		<path fill="#010101" d="M21,8.2l-1.4,0l-6.7,0c-0.4,0.5-0.5,1.1-0.5,1.1s0-0.6-0.4-1.1l-6.7,0L4,8.2c-2.3,0-3.3-1.8-3.3-3
			c0,0,0,0.5,0,2.3c0,0.3,0,0.6,0.1,0.9c0.1,0.7,0.6,3.1,3.1,3.1c2.9,0,5,0,6.4,0c2.2,0,2.3,2,2.3,2s0.2-2,2.4-2c1.4,0,3.5,0,6.4,0
			c2.5,0,3-2.4,3.1-3.1c0-0.3,0.1-0.5,0.1-0.9c0-1.8,0-2.3,0-2.3C24.3,6.4,23.3,8.2,21,8.2z"/>
	</g>
</g>
</svg>
